<svg version="1.1" xmlns="http://www.w3.org/2000/svg" xmlns:xlink="http://www.w3.org/1999/xlink" width="86.60569" height="58.30219" viewBox="0,0,86.60569,58.30219"><g transform="translate(-176.05676,-95.05569)"><g data-paper-data="{&quot;isPaintingLayer&quot;:true}" fill-rule="nonzero" stroke-linejoin="miter" stroke-miterlimit="10" stroke-dasharray="" stroke-dashoffset="0" style="mix-blend-mode: normal"><path d="" fill="#000000" stroke="none" stroke-width="0.5" stroke-linecap="butt"/><path d="M211.42148,131.40108c-1.72159,-0.51059 -2.38585,-3.82699 -3.6262,-5.05747c-1.34765,-1.33693 -3.11496,-2.3067 -4.32338,-3.80191c-1.72592,-2.13553 -2.37922,-4.49722 -4.00887,-6.6684c-1.33507,-1.7801 -2.66671,-3.89438 -4.32819,-5.37456c-2.49885,-2.22616 -5.92245,-3.28105 -8.49224,-5.57556c-1.69797,-1.51609 -3.53534,-4.62603 -6.0573,-4.45206c0,0 -0.44463,-0.00001 -0.80352,-0.26518c-0.10904,-0.00275 -1.24159,-0.06003 -1.24159,-1.24986c0,-1.25 1.25,-1.25 1.25,-1.25c2.17301,0.03118 4.31856,-0.90715 6.53731,-1.057c8.05703,-0.54416 16.07044,-1.59337 24.20694,-1.59337c6.883,0 15.00644,0.5259 21.62114,2.7224c4.80598,1.59589 9.05787,5.69999 13.38906,8.27429c3.82775,1.55138 5.6469,4.97826 8.87886,7.23225c1.62866,1.13584 3.73254,1.588 5.21755,3.06137c0.81019,0.80384 1.43557,1.61708 2.02623,2.42068c-3.0535,-0.82171 -5.72906,-2.22381 -9.25707,-2.22799c-6.24784,0 -11.54133,0.77853 -17.572,2.16042c-2.51395,0.57605 -5.324,0.60391 -7.78868,1.35329c-1.32631,0.40326 -6.62506,1.19334 -7.32638,2.81217l-0.29263,0.08361c-0.64432,0.16832 -1.1198,0.75433 -1.1198,1.4514c0,0.29258 0.08376,0.56559 0.22862,0.79636c-0.29768,0.55701 -0.66146,3.45232 -0.74362,4.0272c0,0 -0.0522,0.36537 0.07643,0.75953c-1.98742,0.48823 -4.53959,1.98521 -6.45065,1.41841z" fill="#848484" stroke="none" stroke-width="0.5" stroke-linecap="butt"/><path d="M258.9849,127.48368c-0.22876,-0.07813 -0.4566,-0.15572 -0.68389,-0.23227c0.03508,-0.00834 0.07011,-0.01673 0.10507,-0.02516c0.34073,0.0673 0.68428,0.11629 1.03031,0.14498c-0.09565,0.05596 -0.19108,0.11281 -0.28653,0.16976c-0.05469,-0.01931 -0.10971,-0.03844 -0.16495,-0.05731z" fill="#848484" stroke="none" stroke-width="0.5" stroke-linecap="butt"/><path d="M262.48543,131.22237c-0.11962,-0.1166 -0.24998,-0.22583 -0.38977,-0.32836c0.19291,-0.02465 0.3832,-0.05887 0.56679,-0.10499c-0.05971,0.14415 -0.11868,0.28861 -0.17703,0.43335z" fill="#848484" stroke="none" stroke-width="0.5" stroke-linecap="butt"/><path d="M227.36161,123.53192c0.00516,0.03749 0.01091,0.07435 0.01726,0.11059c-0.09716,-0.00975 -0.19431,-0.01966 -0.29144,-0.02973c0.09136,-0.0266 0.18278,-0.05358 0.27418,-0.08086z" fill="#848484" stroke="none" stroke-width="0.5" stroke-linecap="butt"/><path d="M231.44038,128.59371c0.28421,0.0059 0.56853,0.01259 0.85291,0.02018c-0.04454,0.04242 -0.08648,0.08755 -0.12555,0.13513c-0.24343,-0.04859 -0.48581,-0.10068 -0.72736,-0.15531z" fill="#848484" stroke="none" stroke-width="0.5" stroke-linecap="butt"/><path d="M251.29386,132.53925c-0.06162,0.00289 -0.12292,0.00744 -0.18383,0.01391c-0.04409,-0.01241 -0.08829,-0.02437 -0.13261,-0.03591c0.02306,-0.01813 0.04583,-0.0367 0.06829,-0.05571c0.08302,0.02622 0.16576,0.05212 0.24815,0.07771z" fill="#848484" stroke="none" stroke-width="0.5" stroke-linecap="butt"/><path d="" fill="#848484" stroke="none" stroke-width="0.5" stroke-linecap="butt"/><path d="" fill="#848484" stroke="none" stroke-width="0.5" stroke-linecap="butt"/><path d="M203.20551,136.02754l-22.77027,-27.51377l-2.49311,-9.36503l11.45484,5.17364l20.32052,27.01909z" data-paper-data="{&quot;index&quot;:null}" fill="#ffffff" stroke="#000000" stroke-width="2.5" stroke-linecap="round"/><path d="M202.19174,141.20199l-4.99721,0.11028l19.30982,-14.63247l-0.64119,4.09923z" data-paper-data="{&quot;index&quot;:null}" fill="none" stroke="#000000" stroke-width="2.5" stroke-linecap="round"/><path d="M201.14095,140.5545l13.44536,-10.99719" data-paper-data="{&quot;index&quot;:null}" fill="none" stroke="#000000" stroke-width="2.5" stroke-linecap="round"/><path d="M219.77141,151.60697l-9.98468,-13.21075l1.1009,-0.83205l9.98467,13.21075z" data-paper-data="{&quot;index&quot;:null}" fill="none" stroke="#8c2f00" stroke-width="2.5" stroke-linecap="butt"/></g></g></svg>